<!--?xml version="1.0" encoding="utf-8"?-->
<!-- Generator: Adobe Illustrator 18.1.1, SVG Export Plug-In . SVG Version: 6.00 Build 0)  -->

<svg version="1.1" id="_x32_" xmlns="http://www.w3.org/2000/svg" xmlns:xlink="http://www.w3.org/1999/xlink" x="0px" y="0px" viewBox="0 0 512 512" style="width: 256px; height: 256px; opacity: 1;" xml:space="preserve">
<style type="text/css">
	.st0{fill:#4B4B4B;}
</style>
<g>
	<path class="st0" d="M479.336,335.852c20.763-27.978,32.711-64.873,32.664-110.414V103.265
		c-0.01-24.739-20.044-44.763-44.774-44.773c0,0-85.116,0-171.396,0c-86.29,0-173.744,0-178.43,0
		C52.556,58.502,0.009,111.048,0,175.893c-0.038,32.389,13.302,61.228,34.539,81.924c21.226,20.744,50.255,33.65,82.038,35.468
		c2.272,0.122,4.488,0.179,6.646,0.179c4.772,0,9.335-0.341,13.738-0.938c11.125,27.571,28.773,51.799,51.259,70.592l-0.34-0.284
		l0.255,0.217c0.729,0.616,1.648,1.326,2.547,2.036H123.64v40.902c0.01,26.244,21.264,47.508,47.519,47.518h293.19
		c26.244-0.01,47.51-21.264,47.518-47.518v-40.902h-61.246C461.31,356.756,471.014,347.099,479.336,335.852z M482.782,394.173
		v11.816c-0.018,10.178-8.265,18.415-18.433,18.433h-293.19c-10.178-0.018-18.416-8.256-18.434-18.433v-11.816h94.28h147.868
		H482.782z M389.884,365.088H252.137c-11.769-4.299-21.729-9.165-29.332-13.539c-8.058-4.62-13.662-8.805-15.849-10.679l0.161,0.141
		l-0.246-0.198c-21.558-18.027-37.88-42.075-46.676-69.513l-4.355-13.539l-13.634,4.043c-5.454,1.619-11.684,2.575-18.983,2.575
		c-1.628,0-3.294-0.048-5.008-0.142c-24.919-1.412-47.32-11.532-63.34-27.221c-16.019-15.725-25.752-36.706-25.79-61.123
		c0.009-24.437,9.865-46.421,25.866-62.45c16.029-16.01,38.013-25.856,62.45-25.866c9.373,0,349.826,0,349.826,0
		c8.654,0.01,15.67,7.025,15.688,15.688v122.173c-0.048,40.617-10.348,70.62-26.955,93.106
		C439.722,340.434,417,355.564,389.884,365.088z" style="fill: rgba(133, 115, 115, 0.85);"></path>
	<path class="st0" d="M122.712,122.154c-29.691,0.01-53.73,24.057-53.74,53.74c0.01,29.691,24.058,53.739,53.74,53.748
		c9.572,0,18.368-2.708,25.838-6.826l6.268-3.455v-86.934l-6.268-3.446C141.08,124.852,132.284,122.144,122.712,122.154z
		 M130.58,204.164c-2.537,0.767-5.15,1.24-7.868,1.24c-16.294-0.028-29.474-13.208-29.502-29.511
		c0.028-16.285,13.218-29.474,29.502-29.502c2.718,0.01,5.33,0.483,7.868,1.24V204.164z" style="fill: rgba(133, 115, 115, 0.85);"></path>
</g>
</svg>
